<svg preserveAspectRatio="none" width="100%" height="100%" overflow="visible" style="display: block;" viewBox="0 0 31.728 36" fill="none" xmlns="http://www.w3.org/2000/svg">
<g id="Group">
<path id="Vector" d="M31.728 5.71518C31.7 6.56218 31.668 7.41018 31.6449 8.25719C31.6289 8.88092 31.6419 9.5057 31.6119 10.1294C31.5678 11.0355 31.5078 11.9415 31.4347 12.8456C31.3526 13.8538 31.2054 14.855 31.0212 15.8502C30.0781 20.9452 28.0367 25.5196 24.5966 29.4363C22.3049 32.0453 19.6507 34.1939 16.5791 35.8238C16.0535 36.1021 15.5669 36.0231 15.0683 35.7788C13.943 35.2281 12.8957 34.5543 11.8956 33.8034C10.6821 32.8923 9.49972 31.9432 8.42545 30.8669C6.8626 29.3021 5.54304 27.547 4.38667 25.6648C3.47158 24.175 2.68566 22.6252 2.11698 20.9682C1.64843 19.6026 1.27999 18.209 0.932578 16.8093C0.688289 15.8251 0.518089 14.829 0.429985 13.8208C0.34188 12.8176 0.269794 11.8124 0.209723 10.8062C0.14865 9.784 0.102598 8.76178 0.0645526 7.73857C0.0325147 6.86754 0.0164942 5.99551 0.000475263 5.12448C-0.00753422 4.68596 0.0825741 4.59285 0.509079 4.52777C1.31503 4.40663 2.12199 4.29049 2.92594 4.15733C3.92312 3.99214 4.9213 3.82995 5.91247 3.63171C8.51756 3.1111 11.0305 2.30614 13.4154 1.12474C13.992 0.83941 14.5537 0.52503 15.1244 0.227683C15.3767 0.096528 15.636 -0.044639 15.9313 0.013429C16.1286 0.052475 16.3268 0.120556 16.504 0.213666C17.7174 0.85342 18.9679 1.41409 20.2334 1.93971C22.0986 2.71463 24.0209 3.30332 26.0103 3.65974C27.6031 3.94508 29.198 4.2154 30.7929 4.49073C30.9701 4.52177 31.1514 4.53178 31.3266 4.56782C31.6099 4.62589 31.699 4.73902 31.715 5.03037C31.721 5.1465 31.722 5.26264 31.724 5.37878C31.725 5.49091 31.724 5.60304 31.724 5.71518C31.727 5.71518 31.728 5.71518 31.728 5.71518ZM22.5782 10.7261C22.2929 10.3417 21.9665 10.0193 21.589 9.752C20.2635 8.81284 18.7717 8.37132 17.1638 8.29623C16.1636 8.24918 15.1744 8.34729 14.2043 8.6056C12.7986 8.97904 11.5451 9.6348 10.5009 10.657C9.49772 11.6382 8.81992 12.8176 8.45148 14.1692C8.06703 15.5779 8.03699 17.0045 8.3033 18.4362C8.60166 20.0391 9.30649 21.4388 10.4458 22.6102C11.3299 23.5183 12.3901 24.153 13.5866 24.5585C15.0503 25.0551 16.5511 25.1492 18.0749 24.9429C19.7599 24.7147 21.1936 23.9838 22.375 22.7614C22.5321 22.5982 22.6773 22.422 22.8345 22.2437C22.0616 21.7001 21.3037 21.1685 20.5448 20.6348C20.5158 20.6719 20.4957 20.6969 20.4767 20.7219C20.0082 21.3267 19.4175 21.7742 18.7196 22.0805C17.7755 22.495 16.7853 22.5681 15.7802 22.4169C13.8859 22.1326 12.5523 21.0944 11.7994 19.3393C11.2338 18.0177 11.1467 16.6341 11.42 15.2324C11.6503 14.051 12.1819 13.0138 13.087 12.2069C14.5617 10.8923 16.2767 10.5209 18.18 11.0034C18.9129 11.1897 19.5726 11.52 20.0983 12.0827C20.2044 12.1958 20.3035 12.316 20.4146 12.4431C21.1325 11.8705 21.8493 11.3028 22.5782 10.7261Z" fill="var(--fill-0, #290099)"/>
</g>
</svg>
