<svg preserveAspectRatio="none" width="100%" height="100%" overflow="visible" style="display: block;" viewBox="0 0 128.698 23.6364" fill="none" xmlns="http://www.w3.org/2000/svg">
<g id="Group">
<path id="Vector" d="M67.6219 0.00335423C67.6219 7.69769 67.6219 15.3464 67.6219 23.0164C66.1092 23.0164 64.6056 23.0164 63.0625 23.0164C63.0625 22.3924 63.0625 21.7685 63.0625 21.0593C62.9529 21.1628 62.8982 21.1993 62.8616 21.2511C61.9181 22.5598 60.5759 23.1837 59.0327 23.4059C54.9908 23.9873 51.801 21.3393 51.0127 17.4069C50.5167 14.9355 50.8453 12.5858 52.2545 10.4553C54.1324 7.61552 57.4622 6.88505 60.1467 7.78901C60.9533 8.05989 61.6411 8.54384 62.2529 9.12822C62.3564 9.22562 62.4416 9.34127 62.5329 9.4508C62.5664 9.43869 62.5999 9.42342 62.6333 9.41131C62.6333 9.27431 62.6333 9.13428 62.6333 8.99732C62.6333 6.13934 62.6395 3.28136 62.6243 0.420332C62.6212 0.0764005 62.7277 -0.00577926 63.0564 0.000308087C64.4443 0.0185701 65.8292 0.00640137 67.2171 0.00640137C67.3389 0.0033572 67.4575 0.00335423 67.6219 0.00335423ZM62.8982 15.4042C62.8251 15.0116 62.7886 14.6098 62.679 14.2294C61.9059 11.5418 58.7466 10.5953 56.7683 12.4763C55.7152 13.4776 55.4686 14.7712 55.6725 16.1682C56.0104 18.4661 58.1288 19.8541 60.2654 19.1814C61.7842 18.7005 62.8555 17.1422 62.8982 15.4042Z" fill="var(--fill-0, #290099)"/>
<path id="Vector_2" d="M16.3729 16.7069C17.5752 17.8361 18.7713 18.9592 20.0162 20.1249C19.5688 20.5328 19.1579 20.9497 18.7074 21.3119C16.9147 22.7516 14.8389 23.4698 12.5592 23.6068C10.0574 23.756 7.65897 23.3542 5.4645 22.0789C2.51825 20.3654 0.789452 17.7722 0.20812 14.4394C-0.205816 12.0714 -0.0231935 9.73089 0.944684 7.50292C2.24432 4.51711 4.49053 2.53874 7.57983 1.57391C11.1287 0.466016 14.5833 0.721677 17.8704 2.54178C18.5856 2.93746 19.2035 3.46705 19.7392 4.08491C18.5522 5.24759 17.3742 6.40112 16.1842 7.56684C15.335 6.44982 14.0932 5.91108 12.6688 5.72543C9.63126 5.3267 6.87066 7.07072 6.0154 10.017C5.27579 12.5645 5.5832 14.9782 7.39417 17.0204C8.73338 18.53 10.5018 19.0352 12.4771 18.8588C14.081 18.7187 15.3716 17.9913 16.3729 16.7069Z" fill="var(--fill-0, #290099)"/>
<path id="Vector_3" d="M48.4377 16.8378C44.7854 16.8378 41.1513 16.8378 37.4837 16.8378C37.5537 17.6717 37.9494 18.2865 38.549 18.7796C40.2504 20.1858 42.8314 19.9636 44.2954 18.2926C44.344 18.2378 44.3715 18.1678 44.414 18.0918C45.5433 18.8039 46.6086 19.4766 47.6738 20.1523C47.7438 20.198 47.8047 20.2558 47.8929 20.3227C47.4181 21.044 46.8247 21.6254 46.1338 22.1124C44.8189 23.0346 43.3366 23.4455 41.757 23.5368C39.8091 23.6495 37.9463 23.3299 36.2632 22.295C34.1236 20.9801 33.0004 19.0261 32.7538 16.5486C32.559 14.5825 32.8696 12.7167 33.9439 11.0274C35.271 8.94253 37.2311 7.83769 39.6417 7.51202C41.3644 7.28071 43.0444 7.46332 44.6027 8.28815C46.6999 9.39605 47.8473 11.2161 48.2734 13.4867C48.4591 14.4698 48.4287 15.4925 48.4895 16.4969C48.4957 16.6034 48.4591 16.7099 48.4377 16.8378ZM43.8753 13.6997C43.9454 12.6132 43.2788 11.5205 42.3323 11.1126C41.0448 10.5587 39.3221 10.8753 38.3329 11.8645C37.8337 12.3636 37.511 12.954 37.4898 13.7028C39.6356 13.6997 41.7418 13.6997 43.8753 13.6997Z" fill="var(--fill-0, #290099)"/>
<path id="Vector_4" d="M97.8697 16.8408C94.2081 16.8408 90.574 16.8408 86.9124 16.8408C86.9702 17.6474 87.3537 18.25 87.9199 18.7401C89.5818 20.1828 92.2571 19.9849 93.6998 18.3262C93.7546 18.2622 93.8033 18.1953 93.8702 18.113C95.039 18.8527 96.1742 19.571 97.3339 20.3045C96.8438 21.0472 96.2504 21.6285 95.5595 22.1155C94.2567 23.0286 92.7866 23.4425 91.2193 23.5369C89.2591 23.6556 87.3842 23.339 85.6889 22.295C83.5493 20.9802 82.4261 19.0262 82.1796 16.5487C81.9848 14.5947 82.2922 12.7411 83.3514 11.0579C84.6784 8.9517 86.6446 7.84078 89.0704 7.51207C90.7809 7.28076 92.4488 7.46033 94.0011 8.26994C96.1164 9.37477 97.273 11.204 97.7022 13.4898C97.8845 14.4728 97.8569 15.4955 97.918 16.5C97.921 16.5943 97.8904 16.6917 97.8697 16.8408ZM93.295 13.6998C93.3894 12.665 92.7288 11.551 91.7975 11.131C90.504 10.5496 88.7265 10.8722 87.7373 11.8828C87.2534 12.3789 86.9398 12.9633 86.9124 13.6998C89.0551 13.6998 91.1614 13.6998 93.295 13.6998Z" fill="var(--fill-0, #290099)"/>
<path id="Vector_5" d="M105.822 7.87727C105.822 8.556 105.822 9.21648 105.822 9.98045C105.953 9.79786 106.023 9.70647 106.087 9.61212C108.121 6.72069 112.814 6.67503 114.832 9.53304C115.657 10.7018 115.94 12.0471 115.955 13.435C115.988 16.5729 115.964 19.714 115.964 22.852C115.964 22.8976 115.955 22.9464 115.946 23.0164C114.29 23.0164 112.643 23.0164 110.949 23.0164C110.949 22.8733 110.949 22.7334 110.949 22.5933C110.945 19.8692 110.951 17.1422 110.93 14.4181C110.927 13.9737 110.851 13.5171 110.726 13.091C110.238 11.4505 108.285 10.9483 107.019 12.1201C106.395 12.6954 106.124 13.441 106.039 14.2598C105.999 14.6464 105.99 15.036 105.99 15.4255C105.987 17.7965 105.987 20.1706 105.987 22.5415C105.987 22.6968 105.987 22.849 105.987 23.0224C104.304 23.0224 102.669 23.0224 101.013 23.0224C101.013 17.97 101.013 12.9419 101.013 7.88031C102.618 7.87727 104.2 7.87727 105.822 7.87727Z" fill="var(--fill-0, #290099)"/>
<path id="Vector_6" d="M76.9659 7.87119C78.1833 7.87119 79.3369 7.87119 80.5178 7.87119C80.5178 9.10691 80.5178 10.3152 80.5178 11.5662C79.352 11.5662 78.1925 11.5662 77.0024 11.5662C76.9932 11.7214 76.9842 11.8371 76.9842 11.9558C76.9842 13.782 76.9811 15.6051 76.9871 17.4313C76.9871 17.6595 77.0085 17.8939 77.0481 18.1191C77.2185 19.0992 77.7298 19.5496 78.719 19.5405C79.2486 19.5345 79.7751 19.4492 80.3687 19.3914C80.3687 20.1492 80.3687 20.9466 80.3687 21.7441C80.3687 21.9633 80.3595 22.1824 80.3778 22.4016C80.4204 22.9768 80.4265 22.9799 79.8908 23.1077C78.4664 23.4547 77.0298 23.5429 75.5932 23.2112C73.6969 22.7728 72.5678 21.5645 72.2695 19.6501C72.1752 19.0505 72.1296 18.4418 72.1234 17.8361C72.1051 15.9004 72.1173 13.9676 72.1173 12.0319C72.1173 11.898 72.1173 11.7671 72.1173 11.5905C71.3138 11.5905 70.5316 11.5905 69.725 11.5905C69.725 10.3396 69.725 9.12822 69.725 7.88337C70.5043 7.88337 71.2773 7.88337 72.093 7.88337C72.093 6.54112 72.093 5.23234 72.093 3.89922C73.7365 3.89922 75.3344 3.89922 76.975 3.89922C76.9659 5.208 76.9659 6.51373 76.9659 7.87119Z" fill="var(--fill-0, #290099)"/>
<path id="Vector_7" d="M120.295 11.5845C119.482 11.5845 118.706 11.5845 117.906 11.5845C117.906 10.3456 117.906 9.13735 117.906 7.87727C118.682 7.87727 119.465 7.87727 120.277 7.87727C120.277 6.53198 120.277 5.23235 120.277 3.90532C121.918 3.90532 123.524 3.90532 125.159 3.90532C125.159 5.21713 125.159 6.51677 125.159 7.85294C126.346 7.85294 127.506 7.85294 128.698 7.85294C128.698 9.10083 128.698 10.3092 128.698 11.557C127.545 11.557 126.382 11.557 125.201 11.557C125.189 11.6848 125.171 11.7792 125.171 11.8706C125.168 13.7454 125.168 15.6172 125.174 17.4922C125.174 17.7083 125.201 17.9304 125.238 18.1435C125.405 19.0809 125.91 19.5375 126.861 19.5375C127.402 19.5375 127.941 19.4492 128.537 19.3944C128.537 19.7048 128.531 20.061 128.537 20.4201C128.55 21.1628 128.567 21.9024 128.586 22.645C128.592 22.8216 128.592 22.9707 128.364 23.0316C126.702 23.479 125.028 23.5947 123.36 23.1016C121.634 22.5933 120.73 21.3454 120.447 19.6197C120.347 19.0109 120.308 18.387 120.302 17.7691C120.283 15.7268 120.295 13.6846 120.295 11.5845Z" fill="var(--fill-0, #290099)"/>
<path id="Vector_8" d="M26.9071 23.0256C25.2361 23.0256 23.6108 23.0256 21.9581 23.0256C21.9581 17.9822 21.9581 12.9541 21.9581 7.90165C23.5377 7.90165 25.1113 7.90165 26.7274 7.90165C26.7274 8.59256 26.7274 9.28041 26.7274 9.96824C26.7549 9.98045 26.7854 9.98961 26.8127 10.0017C26.8767 9.89832 26.9375 9.79176 27.0014 9.68825C28.0332 8.00208 29.8533 7.14683 31.649 7.49381C31.8651 7.53641 31.9656 7.60032 31.9534 7.84382C31.8865 9.13128 31.8348 10.4187 31.7738 11.7062C31.7709 11.7762 31.7434 11.8432 31.7403 11.8523C31.0952 11.8523 30.4742 11.7823 29.8716 11.8645C28.0941 12.111 26.9132 13.5232 26.9101 15.3282C26.9071 17.7356 26.9101 20.1463 26.9101 22.5537C26.9071 22.6907 26.9071 22.8369 26.9071 23.0256Z" fill="var(--fill-0, #290099)"/>
</g>
</svg>
