<svg width="12" height="12" viewBox="0 0 12 12" fill="none" xmlns="http://www.w3.org/2000/svg">
<g clip-path="url(#clip0_116_2381)">
<path d="M6.00196 0C6.10978 0 6.21759 0.0234375 6.31368 0.0679688L10.7293 1.94063C11.2449 2.15859 11.6293 2.66719 11.627 3.28125C11.6152 5.60625 10.659 9.86016 6.61837 11.7938C6.22696 11.9813 5.77228 11.9813 5.38321 11.7938C1.34259 9.86016 0.388683 5.60859 0.376964 3.28125C0.37462 2.66719 0.758995 2.15859 1.27462 1.94063L5.6879 0.0679688C5.78399 0.0234375 5.89181 0 6.00196 0ZM8.13243 3.85781C7.88165 3.675 7.53009 3.73125 7.34728 3.98203L5.34103 6.74063L4.71993 6.09844C4.50431 5.87578 4.14806 5.86875 3.9254 6.08438C3.70274 6.3 3.69571 6.65625 3.91134 6.87891L4.99884 8.00391C5.11368 8.12344 5.2754 8.18672 5.44181 8.175C5.60821 8.16328 5.76056 8.07891 5.85899 7.94531L8.25665 4.64297C8.43946 4.39219 8.38321 4.04063 8.13243 3.85781Z" fill="#27AE74"/>
</g>
<defs>
<clipPath id="clip0_116_2381">
<rect width="12" height="12" fill="white"/>
</clipPath>
</defs>
</svg>
